<svg id="svg" version="1.1" xmlns="http://www.w3.org/2000/svg" xmlns:xlink="http://www.w3.org/1999/xlink" width="400" height="352.2012578616352" viewBox="0, 0, 400,352.2012578616352"><g id="svgg"><path id="path0" d="M171.711 37.579 C 164.093 38.311,157.292 42.549,151.610 50.105 C 145.267 58.539,145.333 70.563,151.775 80.554 C 152.207 81.224,152.561 81.836,152.561 81.914 C 152.561 81.993,150.883 82.061,148.832 82.066 C 126.408 82.123,113.626 106.306,126.103 125.067 C 131.435 133.085,141.963 137.888,151.172 136.503 C 153.311 136.181,153.390 136.421,151.885 138.663 C 147.535 145.145,145.962 152.703,147.499 159.748 C 153.029 185.109,186.159 189.881,198.644 167.116 C 200.034 164.580,199.940 164.572,201.519 167.372 C 213.911 189.344,246.197 185.134,252.385 160.739 C 253.902 154.760,253.329 149.656,250.385 142.920 C 248.632 138.909,248.430 138.034,249.072 137.218 C 249.650 136.484,250.442 136.193,251.315 136.395 C 253.320 136.860,257.455 136.361,260.521 135.283 C 275.355 130.068,282.569 113.879,276.723 98.926 C 272.740 88.740,263.199 82.440,251.351 82.171 L 247.265 82.078 247.600 81.605 C 248.184 80.780,251.326 74.359,251.833 72.956 C 254.199 66.398,253.519 59.675,249.751 52.381 C 243.943 41.137,232.615 35.648,220.252 38.088 C 212.028 39.711,205.827 44.355,201.329 52.258 C 199.864 54.831,199.991 54.778,199.176 53.160 C 193.824 42.530,183.156 36.479,171.711 37.579 M227.587 44.273 C 231.535 46.081,230.426 52.110,226.063 52.556 C 218.348 53.346,214.272 57.170,213.487 64.357 C 212.701 71.557,204.006 70.872,204.560 63.654 C 205.170 55.727,209.443 49.427,216.597 45.909 C 220.802 43.841,225.210 43.185,227.587 44.273 M176.236 44.149 C 180.778 46.304,179.280 52.044,174.020 52.643 C 167.013 53.439,162.130 58.442,162.084 64.870 C 162.056 68.705,157.445 70.817,154.746 68.230 C 151.017 64.655,154.676 53.407,161.186 48.434 C 165.470 45.161,173.532 42.865,176.236 44.149 M149.850 88.512 C 153.626 89.633,154.243 94.609,150.852 96.596 C 150.213 96.970,149.671 97.099,148.129 97.242 C 141.630 97.844,137.185 102.046,136.562 108.176 C 136.267 111.083,135.966 111.890,134.827 112.829 C 131.785 115.336,127.400 113.072,127.404 108.997 C 127.412 101.469,133.191 92.970,140.264 90.086 C 143.720 88.677,148.026 87.970,149.850 88.512 M201.868 88.683 C 204.034 89.710,204.703 91.752,203.987 95.148 L 203.646 96.765 202.946 96.894 C 202.561 96.964,201.260 97.104,200.054 97.203 C 192.903 97.795,189.051 101.418,188.066 108.476 C 187.474 112.725,185.197 114.708,182.093 113.678 C 175.614 111.526,179.667 97.597,188.436 91.881 C 192.566 89.189,199.471 87.545,201.868 88.683 M252.581 88.496 C 257.857 90.062,256.587 96.660,250.898 97.235 C 244.091 97.923,240.176 101.752,239.278 108.600 C 238.689 113.088,236.040 115.026,232.745 113.379 C 226.904 110.460,231.620 96.842,240.340 91.447 C 243.882 89.256,250.095 87.757,252.581 88.496 M176.503 133.745 C 180.916 136.332,178.971 141.630,173.416 142.154 C 166.864 142.773,162.905 146.981,162.082 154.201 C 161.637 158.102,158.242 159.996,155.246 158.013 C 151.155 155.306,153.553 145.183,159.720 139.126 C 164.251 134.674,173.195 131.807,176.503 133.745 M227.632 133.616 C 230.695 135.143,230.801 139.906,227.806 141.442 C 227.422 141.639,226.269 141.902,225.137 142.051 C 218.329 142.949,214.346 146.712,213.630 152.920 C 213.006 158.340,209.505 160.547,206.124 157.653 C 202.452 154.509,205.509 143.778,211.559 138.579 C 216.323 134.484,224.381 131.996,227.632 133.616 " stroke="none" fill="#fbfbfb" fill-rule="evenodd"></path><path id="path1" d="M194.340 0.113 C 135.810 3.294,90.251 51.244,90.209 109.707 C 90.167 170.527,139.184 219.583,200.000 219.583 C 269.107 219.583,320.954 156.666,307.798 88.769 C 297.430 35.265,248.665 -2.840,194.340 0.113 M179.515 37.825 C 188.299 39.783,194.999 44.889,199.020 52.688 L 199.926 54.446 201.254 52.171 C 204.967 45.812,209.235 41.875,214.929 39.557 C 228.909 33.864,244.283 39.854,250.379 53.369 C 250.624 53.913,251.155 55.073,251.558 55.948 C 254.539 62.411,253.797 69.989,249.346 78.520 C 248.446 80.246,247.682 81.722,247.649 81.799 C 247.616 81.877,248.829 81.941,250.344 81.941 C 267.218 81.944,278.878 93.692,278.883 110.692 C 278.887 124.886,264.378 138.397,251.161 136.509 L 250.120 136.360 249.409 137.072 C 248.580 137.901,248.515 138.402,249.078 139.623 C 252.782 147.646,253.310 149.694,253.135 155.345 C 252.523 175.063,231.727 187.655,213.842 179.137 C 208.735 176.705,204.342 172.627,201.703 167.872 C 199.895 164.611,200.145 164.589,198.123 168.194 C 194.855 174.019,189.605 178.283,183.085 180.408 C 158.106 188.548,137.161 161.132,151.504 139.069 C 152.871 136.967,153.061 136.297,152.246 136.456 C 143.862 138.096,133.612 134.391,127.955 127.677 C 112.313 109.112,125.004 81.866,149.267 81.926 L 152.533 81.934 151.438 80.192 C 146.765 72.756,145.656 65.324,147.999 57.143 C 149.430 52.146,152.420 48.095,158.580 42.808 C 163.742 38.378,172.569 36.277,179.515 37.825 M172.348 44.127 C 161.847 45.603,155.331 51.861,153.569 62.161 C 153.034 65.290,153.303 66.580,154.794 68.034 C 157.746 70.912,162.077 68.616,162.087 64.167 C 162.099 58.370,167.396 53.125,173.813 52.557 C 177.364 52.242,179.266 50.182,178.630 47.340 C 178.015 44.594,176.077 43.603,172.348 44.127 M222.253 44.113 C 214.683 45.341,207.852 51.251,205.667 58.463 C 203.630 65.187,204.897 69.296,208.999 69.263 C 211.670 69.241,212.938 67.747,213.399 64.079 C 214.268 57.174,218.340 53.295,225.574 52.482 C 228.342 52.171,229.655 51.020,229.797 48.776 C 230.048 44.846,227.488 43.264,222.253 44.113 M145.373 88.772 C 136.055 90.417,129.617 96.816,127.864 106.174 C 126.981 110.891,128.496 113.733,131.896 113.741 C 134.621 113.747,136.045 112.142,136.376 108.689 C 137.024 101.953,141.424 97.730,148.489 97.066 C 151.306 96.802,152.753 95.494,152.889 93.090 C 153.102 89.324,150.550 87.858,145.373 88.772 M196.861 88.777 C 187.644 90.493,181.245 96.623,179.422 105.481 C 178.333 110.776,179.813 113.747,183.540 113.747 C 186.079 113.747,187.405 112.138,187.956 108.388 C 188.952 101.621,192.884 97.712,199.191 97.218 C 200.279 97.133,201.703 96.970,202.357 96.855 L 203.547 96.647 203.868 94.999 C 204.923 89.586,202.773 87.676,196.861 88.777 M248.428 88.696 C 238.022 90.539,230.368 99.006,230.368 108.676 C 230.368 115.142,238.185 115.778,239.023 109.381 C 240.042 101.597,243.738 97.880,251.259 97.075 C 253.987 96.782,255.529 95.423,255.672 93.186 C 255.905 89.530,253.196 87.852,248.428 88.696 M170.979 133.604 C 161.014 135.443,154.128 143.028,153.364 153.010 C 153.098 156.494,154.963 158.814,157.888 158.634 C 160.308 158.485,161.584 157.040,161.996 153.980 C 162.964 146.789,167.058 142.497,173.397 142.027 C 176.753 141.778,178.715 140.123,178.697 137.556 C 178.674 134.176,175.815 132.712,170.979 133.604 M222.552 133.527 C 215.400 134.456,208.535 139.918,206.101 146.615 C 203.779 153.002,204.376 157.465,207.684 158.457 C 210.761 159.378,212.924 157.529,213.413 153.559 C 214.277 146.534,218.433 142.575,225.689 141.866 C 228.442 141.597,229.817 140.191,229.825 137.633 C 229.837 134.146,227.583 132.873,222.552 133.527 M40.521 242.678 C 27.444 244.525,17.140 251.114,9.680 262.401 C -3.664 282.590,-3.169 314.168,10.800 333.783 C 27.100 356.673,59.831 358.662,77.313 337.826 C 79.503 335.215,83.345 329.249,83.015 328.970 C 82.968 328.931,80.466 327.021,77.455 324.726 L 71.981 320.554 71.615 321.214 C 63.126 336.526,49.598 342.323,36.029 336.462 C 6.837 323.855,8.251 267.273,38.005 257.338 C 50.972 253.009,63.226 258.529,70.976 272.192 C 71.494 273.106,71.970 273.853,72.033 273.852 C 72.206 273.848,82.725 265.796,82.907 265.529 C 83.097 265.249,81.906 263.080,80.128 260.467 C 73.623 250.908,64.952 245.094,54.088 243.006 C 51.049 242.422,43.608 242.242,40.521 242.678 M251.796 243.685 C 242.970 245.156,239.503 255.993,245.816 262.375 C 251.817 268.441,262.226 265.642,264.335 257.395 C 266.328 249.603,259.710 242.367,251.796 243.685 M120.944 279.079 C 116.632 279.566,112.062 280.882,108.225 282.742 C 105.815 283.910,102.426 285.975,102.426 286.274 C 102.426 286.403,108.234 296.719,108.476 297.020 C 108.509 297.062,108.920 296.874,109.389 296.604 C 116.648 292.425,125.978 291.304,131.405 293.957 C 136.000 296.204,138.735 300.756,139.487 307.407 C 139.745 309.690,139.869 309.615,137.438 308.654 C 112.696 298.869,90.410 311.042,94.227 332.255 C 97.950 352.942,125.077 359.236,140.314 342.948 C 140.922 342.298,141.424 341.829,141.429 341.907 C 141.434 341.985,141.699 344.030,142.017 346.451 L 142.595 350.854 148.754 350.901 L 154.913 350.948 154.846 329.877 C 154.774 307.236,154.802 307.956,153.815 302.695 C 151.521 290.459,145.571 283.083,135.682 280.216 C 131.995 279.147,125.073 278.613,120.944 279.079 M306.209 279.079 C 301.898 279.566,297.441 280.853,293.464 282.761 C 291.232 283.832,287.691 285.983,287.691 286.267 C 287.691 286.441,293.445 296.532,293.706 296.819 C 293.878 297.006,294.162 296.914,295.180 296.337 C 302.251 292.330,311.586 291.353,316.957 294.058 C 321.589 296.390,324.294 301.361,324.944 308.732 L 325.017 309.557 323.021 308.766 C 298.023 298.870,275.833 310.805,279.515 332.165 C 283.016 352.477,308.938 359.120,324.742 343.756 C 326.551 341.996,326.688 341.899,326.769 342.318 C 326.817 342.565,327.062 344.425,327.314 346.451 C 327.566 348.477,327.812 350.317,327.861 350.539 L 327.949 350.943 334.160 350.943 L 340.370 350.943 340.291 330.952 C 340.211 310.931,340.180 309.867,339.524 305.211 C 337.353 289.797,330.013 281.407,316.885 279.334 C 314.720 278.992,308.332 278.840,306.209 279.079 M396.137 279.009 C 387.048 279.802,380.674 283.099,376.591 289.119 L 375.562 290.636 375.562 285.390 L 375.562 280.144 368.194 280.144 L 360.827 280.144 360.827 315.544 L 360.827 350.943 368.194 350.943 L 375.562 350.943 375.563 334.097 C 375.565 311.155,375.756 309.070,378.336 303.769 C 381.962 296.322,390.528 292.543,399.326 294.510 L 400.000 294.661 400.000 286.773 L 400.000 278.886 398.428 278.916 C 397.563 278.933,396.532 278.975,396.137 279.009 M167.168 280.728 C 167.298 281.049,173.343 296.979,180.602 316.128 L 193.800 350.943 200.000 350.943 L 206.200 350.943 219.398 316.128 C 226.657 296.979,232.702 281.049,232.832 280.728 L 233.069 280.144 225.014 280.144 L 216.960 280.144 208.525 304.402 C 203.886 317.744,200.049 328.660,200.000 328.660 C 199.951 328.660,196.114 317.744,191.475 304.402 L 183.040 280.144 174.986 280.144 L 166.931 280.144 167.168 280.728 M246.181 315.544 L 246.181 350.943 253.639 350.943 L 261.096 350.943 261.096 315.544 L 261.096 280.144 253.639 280.144 L 246.181 280.144 246.181 315.544 M129.200 318.526 C 132.689 319.043,139.230 321.033,140.043 321.825 C 140.481 322.253,138.909 326.401,137.452 328.661 C 129.659 340.752,112.327 341.963,109.002 330.650 C 106.515 322.187,115.893 316.557,129.200 318.526 M314.452 318.525 C 318.039 319.056,324.505 321.019,325.305 321.819 C 325.785 322.299,324.167 326.542,322.607 328.896 C 314.709 340.815,297.196 341.831,294.255 330.541 C 292.036 322.021,301.210 316.563,314.452 318.525 " stroke="none" fill="#1cac9c" fill-rule="evenodd"></path><path id="path2" d="M225.292 37.508 C 225.712 37.546,226.399 37.546,226.819 37.508 C 227.239 37.470,226.896 37.439,226.056 37.439 C 225.216 37.439,224.872 37.470,225.292 37.508 M151.350 82.070 C 151.623 82.111,152.028 82.110,152.249 82.067 C 152.470 82.025,152.246 81.991,151.752 81.992 C 151.258 81.993,151.077 82.028,151.350 82.070 M199.506 88.354 C 199.679 88.399,199.962 88.399,200.135 88.354 C 200.308 88.309,200.166 88.272,199.820 88.272 C 199.474 88.272,199.333 88.309,199.506 88.354 M225.292 133.280 C 225.514 133.323,225.878 133.323,226.101 133.280 C 226.323 133.238,226.141 133.203,225.696 133.203 C 225.252 133.203,225.070 133.238,225.292 133.280 M253.148 136.698 C 253.471 136.738,253.956 136.737,254.226 136.696 C 254.496 136.655,254.232 136.623,253.639 136.624 C 253.046 136.625,252.825 136.658,253.148 136.698 M147.754 136.876 C 148.026 136.917,148.470 136.917,148.742 136.876 C 149.014 136.835,148.792 136.801,148.248 136.801 C 147.704 136.801,147.482 136.835,147.754 136.876 M165.577 145.597 L 165.049 146.181 165.633 145.654 C 166.178 145.162,166.300 145.013,166.161 145.013 C 166.130 145.013,165.867 145.276,165.577 145.597 M204.541 153.998 C 204.541 154.443,204.576 154.625,204.619 154.403 C 204.662 154.180,204.662 153.816,204.619 153.594 C 204.576 153.372,204.541 153.553,204.541 153.998 " stroke="none" fill="#7dcfc3" fill-rule="evenodd"></path><path id="path3" d="M224.753 43.793 C 224.975 43.835,225.339 43.835,225.562 43.793 C 225.784 43.750,225.602 43.715,225.157 43.715 C 224.712 43.715,224.531 43.750,224.753 43.793 M206.371 45.328 L 205.660 46.092 206.424 45.381 C 206.844 44.991,207.188 44.647,207.188 44.618 C 207.188 44.482,207.031 44.618,206.371 45.328 M210.413 50.270 L 209.793 50.943 210.467 50.324 C 210.838 49.984,211.141 49.680,211.141 49.650 C 211.141 49.513,210.989 49.642,210.413 50.270 M249.730 82.073 C 250.249 82.109,251.098 82.109,251.617 82.073 C 252.136 82.037,251.712 82.007,250.674 82.007 C 249.636 82.007,249.212 82.037,249.730 82.073 M270.710 90.027 C 271.096 90.422,271.452 90.746,271.502 90.746 C 271.551 90.746,271.276 90.422,270.889 90.027 C 270.503 89.632,270.147 89.308,270.098 89.308 C 270.048 89.308,270.324 89.632,270.710 90.027 M236.380 94.564 L 235.669 95.328 236.433 94.618 C 237.143 93.957,237.279 93.801,237.143 93.801 C 237.114 93.801,236.770 94.144,236.380 94.564 M191.274 100.854 L 190.746 101.438 191.330 100.910 C 191.874 100.418,191.996 100.270,191.858 100.270 C 191.827 100.270,191.564 100.532,191.274 100.854 M121.168 109.793 C 121.168 110.337,121.202 110.559,121.243 110.288 C 121.284 110.016,121.284 109.571,121.243 109.299 C 121.202 109.027,121.168 109.250,121.168 109.793 M278.760 110.512 C 278.760 111.056,278.794 111.278,278.835 111.006 C 278.876 110.735,278.876 110.290,278.835 110.018 C 278.794 109.746,278.760 109.969,278.760 110.512 M159.379 139.398 L 158.760 140.072 159.434 139.453 C 160.061 138.876,160.190 138.724,160.053 138.724 C 160.023 138.724,159.720 139.027,159.379 139.398 M253.052 152.740 C 253.052 153.086,253.089 153.228,253.134 153.055 C 253.179 152.882,253.179 152.599,253.134 152.426 C 253.089 152.253,253.052 152.394,253.052 152.740 M146.871 153.998 C 146.871 154.739,146.903 155.043,146.941 154.672 C 146.980 154.301,146.980 153.695,146.941 153.324 C 146.903 152.954,146.871 153.257,146.871 153.998 M193.521 174.079 L 192.902 174.753 193.576 174.134 C 194.203 173.557,194.332 173.405,194.195 173.405 C 194.165 173.405,193.862 173.708,193.521 174.079 M225.022 181.802 C 225.393 181.841,226.000 181.841,226.370 181.802 C 226.741 181.763,226.438 181.732,225.696 181.732 C 224.955 181.732,224.652 181.763,225.022 181.802 " stroke="none" fill="#ace1d9" fill-rule="evenodd"></path><path id="path4" d="M216.790 56.289 L 216.262 56.873 216.846 56.346 C 217.391 55.854,217.513 55.705,217.374 55.705 C 217.343 55.705,217.080 55.968,216.790 56.289 M253.231 65.049 C 253.231 65.395,253.268 65.537,253.313 65.364 C 253.359 65.191,253.359 64.908,253.313 64.735 C 253.268 64.562,253.231 64.704,253.231 65.049 M152.965 92.812 C 152.967 93.208,153.004 93.348,153.047 93.125 C 153.090 92.901,153.088 92.578,153.044 92.406 C 152.999 92.234,152.963 92.417,152.965 92.812 M184.987 94.744 L 184.277 95.508 185.040 94.797 C 185.751 94.137,185.887 93.980,185.751 93.980 C 185.721 93.980,185.378 94.324,184.987 94.744 M148.205 97.162 C 148.429 97.205,148.752 97.203,148.924 97.159 C 149.096 97.114,148.913 97.078,148.518 97.080 C 148.122 97.082,147.982 97.119,148.205 97.162 M242.666 100.674 L 242.138 101.258 242.722 100.730 C 243.267 100.238,243.389 100.090,243.250 100.090 C 243.219 100.090,242.956 100.353,242.666 100.674 M129.111 129.021 C 129.497 129.416,129.853 129.739,129.902 129.739 C 129.952 129.739,129.676 129.416,129.290 129.021 C 128.904 128.625,128.548 128.302,128.498 128.302 C 128.449 128.302,128.724 128.625,129.111 129.021 M173.810 133.278 C 173.982 133.323,174.265 133.323,174.438 133.278 C 174.611 133.232,174.470 133.195,174.124 133.195 C 173.778 133.195,173.637 133.232,173.810 133.278 " stroke="none" fill="#54c4b4" fill-rule="evenodd"></path></g></svg>